<svg width="184" height="44" viewBox="0 0 184 44" fill="none" xmlns="http://www.w3.org/2000/svg">
<path d="M0 0H44V44H0V0Z" fill="#015CFF"/>
<path d="M57.8 8H60.2V13.76H67V8H69.4V22H67V15.84H60.2V22H57.8V8ZM72.9953 8H82.3953V10.08H75.3953V13.76H81.7953V15.84H75.3953V19.92H82.3953V22H72.9953V8ZM85.3 8H87.78L92.24 16.3L96.7 8H99.1V22H96.7V12.2L93 19.1H91.4L87.7 12.2V22H85.3V8ZM108.402 22.22C107.549 22.22 106.736 22.0867 105.962 21.82C105.189 21.5533 104.509 21.14 103.922 20.58C103.336 20.0067 102.869 19.2733 102.522 18.38C102.176 17.4733 102.002 16.38 102.002 15.1V14.7C102.002 13.4733 102.176 12.4267 102.522 11.56C102.869 10.68 103.336 9.96 103.922 9.4C104.509 8.84 105.189 8.43333 105.962 8.18C106.736 7.91333 107.549 7.78 108.402 7.78C109.256 7.78 110.069 7.91333 110.842 8.18C111.616 8.43333 112.296 8.84 112.882 9.4C113.469 9.96 113.936 10.68 114.282 11.56C114.629 12.4267 114.802 13.4733 114.802 14.7V15.1C114.802 16.38 114.629 17.4733 114.282 18.38C113.936 19.2733 113.469 20.0067 112.882 20.58C112.296 21.14 111.616 21.5533 110.842 21.82C110.069 22.0867 109.256 22.22 108.402 22.22ZM108.402 20.1C108.896 20.1 109.376 20.0133 109.842 19.84C110.309 19.6667 110.722 19.3867 111.082 19C111.442 18.6 111.729 18.08 111.942 17.44C112.169 16.8 112.282 16.02 112.282 15.1V14.7C112.282 13.82 112.169 13.08 111.942 12.48C111.729 11.8667 111.442 11.3733 111.082 11C110.722 10.6133 110.309 10.3333 109.842 10.16C109.376 9.98667 108.896 9.9 108.402 9.9C107.896 9.9 107.409 9.98667 106.942 10.16C106.476 10.3333 106.062 10.6133 105.702 11C105.342 11.3733 105.056 11.8667 104.842 12.48C104.629 13.08 104.522 13.82 104.522 14.7V15.1C104.522 16.02 104.629 16.8 104.842 17.44C105.056 18.08 105.342 18.6 105.702 19C106.062 19.3867 106.476 19.6667 106.942 19.84C107.409 20.0133 107.896 20.1 108.402 20.1ZM122.702 8H134.102V22H131.702V10.08H125.102V22H122.702V8ZM137.102 22.22C136.996 22.22 136.876 22.2133 136.742 22.2C136.622 22.2 136.509 22.1867 136.402 22.16V19.88C136.469 19.8933 136.569 19.9 136.702 19.9C137.076 19.9 137.389 19.8133 137.642 19.64C137.896 19.4533 138.102 19.0733 138.262 18.5C138.422 17.9133 138.536 17.0733 138.602 15.98C138.669 14.8867 138.702 13.4267 138.702 11.6V8H148.502V22H146.102V10.08H141.022V12C141.022 14.1733 140.936 15.9333 140.762 17.28C140.602 18.6133 140.356 19.6467 140.022 20.38C139.702 21.1133 139.296 21.6067 138.802 21.86C138.322 22.1 137.756 22.22 137.102 22.22ZM152.097 8H154.497V13.76H156.637C156.717 12.7067 156.917 11.8067 157.237 11.06C157.557 10.3 157.97 9.68 158.477 9.2C158.984 8.70667 159.57 8.34667 160.237 8.12C160.917 7.89333 161.637 7.78 162.397 7.78C163.25 7.78 164.037 7.91333 164.757 8.18C165.477 8.43333 166.097 8.84 166.617 9.4C167.15 9.96 167.564 10.68 167.857 11.56C168.15 12.4267 168.297 13.4733 168.297 14.7V15.1C168.297 16.38 168.15 17.4733 167.857 18.38C167.564 19.2733 167.15 20.0067 166.617 20.58C166.097 21.14 165.477 21.5533 164.757 21.82C164.037 22.0867 163.25 22.22 162.397 22.22C161.61 22.22 160.877 22.1 160.197 21.86C159.53 21.62 158.937 21.2467 158.417 20.74C157.91 20.2333 157.497 19.58 157.177 18.78C156.87 17.9667 156.69 16.9867 156.637 15.84H154.497V22H152.097V8ZM162.397 20.1C162.877 20.1 163.317 20.0133 163.717 19.84C164.13 19.6667 164.49 19.3867 164.797 19C165.104 18.6 165.344 18.08 165.517 17.44C165.69 16.8 165.777 16.02 165.777 15.1V14.7C165.777 13.82 165.69 13.08 165.517 12.48C165.344 11.8667 165.104 11.3733 164.797 11C164.49 10.6133 164.13 10.3333 163.717 10.16C163.317 9.98667 162.877 9.9 162.397 9.9C161.917 9.9 161.47 9.98667 161.057 10.16C160.657 10.3333 160.304 10.6133 159.997 11C159.69 11.3733 159.45 11.8667 159.277 12.48C159.104 13.08 159.017 13.82 159.017 14.7V15.1C159.017 16.02 159.104 16.8 159.277 17.44C159.45 18.08 159.69 18.6 159.997 19C160.304 19.3867 160.657 19.6667 161.057 19.84C161.47 20.0133 161.917 20.1 162.397 20.1ZM176.598 22.22C175.732 22.22 174.925 22.0867 174.178 21.82C173.445 21.5533 172.805 21.1333 172.258 20.56C171.712 19.9867 171.278 19.2533 170.958 18.36C170.652 17.4533 170.498 16.3667 170.498 15.1V14.7C170.498 13.4867 170.658 12.4467 170.978 11.58C171.298 10.7 171.732 9.98 172.278 9.42C172.838 8.86 173.485 8.44667 174.218 8.18C174.965 7.91333 175.758 7.78 176.598 7.78C177.372 7.78 178.092 7.88 178.758 8.08C179.425 8.26667 180.005 8.55333 180.498 8.94C181.005 9.32667 181.412 9.80667 181.718 10.38C182.038 10.9533 182.232 11.6267 182.298 12.4H179.778C179.605 11.5333 179.232 10.9 178.658 10.5C178.098 10.1 177.412 9.9 176.598 9.9C176.158 9.9 175.725 9.98 175.298 10.14C174.872 10.3 174.485 10.5667 174.138 10.94C173.805 11.3133 173.532 11.8067 173.318 12.42C173.118 13.0333 173.018 13.7933 173.018 14.7V15.1C173.018 16.06 173.125 16.86 173.338 17.5C173.565 18.14 173.852 18.6533 174.198 19.04C174.545 19.4267 174.925 19.7 175.338 19.86C175.765 20.02 176.185 20.1 176.598 20.1C177.558 20.1 178.298 19.88 178.818 19.44C179.352 18.9867 179.672 18.3733 179.778 17.6H182.298C182.218 18.4267 182.018 19.1333 181.698 19.72C181.378 20.3067 180.965 20.7867 180.458 21.16C179.965 21.52 179.385 21.7867 178.718 21.96C178.065 22.1333 177.358 22.22 176.598 22.22ZM57.26 29.2H60.41C61.894 29.2 63.0467 29.5967 63.868 30.39C64.6893 31.174 65.1 32.3407 65.1 33.89V34.17C65.1 34.954 64.988 35.6493 64.764 36.256C64.5493 36.8533 64.232 37.3573 63.812 37.768C63.4013 38.1693 62.8973 38.4773 62.3 38.692C61.7027 38.8973 61.026 39 60.27 39H57.26V29.2ZM60.13 37.544C60.606 37.544 61.04 37.4833 61.432 37.362C61.8333 37.2407 62.174 37.0493 62.454 36.788C62.734 36.5173 62.9487 36.1673 63.098 35.738C63.2567 35.3087 63.336 34.786 63.336 34.17V33.89C63.336 33.3207 63.2567 32.8307 63.098 32.42C62.9393 32.0093 62.7247 31.6733 62.454 31.412C62.1833 31.1507 61.8567 30.9593 61.474 30.838C61.1007 30.7167 60.6993 30.656 60.27 30.656H58.94V37.544H60.13ZM67.1311 29.2H73.7111V30.656H68.8111V33.232H73.2911V34.688H68.8111V37.544H73.7111V39H67.1311V29.2ZM79.0344 39.154C78.3997 39.154 77.849 39.084 77.3824 38.944C76.9157 38.804 76.5237 38.608 76.2064 38.356C75.8984 38.104 75.6604 37.81 75.4924 37.474C75.3244 37.1287 75.2217 36.7507 75.1844 36.34H76.8644C76.9017 36.536 76.9624 36.7133 77.0464 36.872C77.1397 37.0307 77.2704 37.1707 77.4384 37.292C77.6064 37.4133 77.8164 37.5067 78.0684 37.572C78.3297 37.6373 78.6517 37.67 79.0344 37.67C79.4264 37.67 79.7577 37.6373 80.0284 37.572C80.3084 37.4973 80.5324 37.404 80.7004 37.292C80.8777 37.1707 81.0037 37.0307 81.0784 36.872C81.1624 36.704 81.2044 36.5267 81.2044 36.34C81.2044 35.8827 80.9897 35.5373 80.5604 35.304C80.1404 35.0707 79.4824 34.8607 78.5864 34.674C78.0824 34.562 77.6344 34.4313 77.2424 34.282C76.8504 34.1233 76.5237 33.932 76.2624 33.708C76.001 33.4747 75.8004 33.1993 75.6604 32.882C75.5297 32.5553 75.4644 32.168 75.4644 31.72C75.4644 31.356 75.539 31.0107 75.6884 30.684C75.847 30.3573 76.0757 30.0727 76.3744 29.83C76.673 29.5873 77.0417 29.396 77.4804 29.256C77.9284 29.116 78.4464 29.046 79.0344 29.046C79.6037 29.046 80.103 29.1113 80.5324 29.242C80.9617 29.3727 81.321 29.5593 81.6104 29.802C81.909 30.0353 82.1377 30.3153 82.2964 30.642C82.4644 30.9687 82.567 31.328 82.6044 31.72H80.9244C80.8497 31.3653 80.6584 31.0807 80.3504 30.866C80.0517 30.642 79.613 30.53 79.0344 30.53C78.3624 30.53 77.877 30.6467 77.5784 30.88C77.289 31.1133 77.1444 31.3933 77.1444 31.72C77.1444 32.168 77.331 32.504 77.7044 32.728C78.0777 32.952 78.6517 33.1433 79.4264 33.302C79.9957 33.4233 80.495 33.5633 80.9244 33.722C81.363 33.8807 81.727 34.0813 82.0164 34.324C82.3057 34.5573 82.5204 34.8373 82.6604 35.164C82.8097 35.4907 82.8844 35.8827 82.8844 36.34C82.8844 36.7413 82.805 37.1147 82.6464 37.46C82.4877 37.8053 82.245 38.104 81.9184 38.356C81.601 38.608 81.1997 38.804 80.7144 38.944C80.2384 39.084 79.6784 39.154 79.0344 39.154ZM84.9898 29.2H86.6698V39H84.9898V29.2ZM93.2542 39.154C92.5822 39.154 91.9709 39.0513 91.4202 38.846C90.8789 38.6313 90.4169 38.314 90.0342 37.894C89.6516 37.474 89.3576 36.956 89.1522 36.34C88.9469 35.7147 88.8442 34.9913 88.8442 34.17V33.89C88.8442 33.1247 88.9469 32.4433 89.1522 31.846C89.3669 31.2393 89.6656 30.7307 90.0482 30.32C90.4402 29.9 90.9069 29.5827 91.4482 29.368C91.9896 29.1533 92.5916 29.046 93.2542 29.046C94.2716 29.046 95.1256 29.312 95.8162 29.844C96.5069 30.3667 96.9596 31.132 97.1742 32.14H95.3542C95.2516 31.832 95.1256 31.5753 94.9762 31.37C94.8269 31.1647 94.6589 31.0013 94.4722 30.88C94.2856 30.7493 94.0849 30.6607 93.8702 30.614C93.6649 30.558 93.4596 30.53 93.2542 30.53C92.4609 30.53 91.8216 30.8053 91.3362 31.356C90.8509 31.8973 90.6082 32.742 90.6082 33.89V34.17C90.6082 34.7673 90.6736 35.2853 90.8042 35.724C90.9349 36.1627 91.1169 36.5267 91.3502 36.816C91.5836 37.1053 91.8636 37.32 92.1902 37.46C92.5169 37.6 92.8716 37.67 93.2542 37.67C93.9822 37.67 94.5609 37.4787 94.9902 37.096C95.4289 36.7133 95.6856 36.1113 95.7602 35.29H93.5342V33.89H97.3842V34.45C97.3842 35.234 97.2862 35.92 97.0902 36.508C96.9036 37.096 96.6329 37.586 96.2782 37.978C95.9236 38.37 95.4896 38.664 94.9762 38.86C94.4722 39.056 93.8982 39.154 93.2542 39.154ZM99.342 29.2H100.966L105.782 36.2V29.2H107.462V39H105.838L101.022 32V39H99.342V29.2ZM116.769 39.154C116.134 39.154 115.583 39.084 115.117 38.944C114.65 38.804 114.258 38.608 113.941 38.356C113.633 38.104 113.395 37.81 113.227 37.474C113.059 37.1287 112.956 36.7507 112.919 36.34H114.599C114.636 36.536 114.697 36.7133 114.781 36.872C114.874 37.0307 115.005 37.1707 115.173 37.292C115.341 37.4133 115.551 37.5067 115.803 37.572C116.064 37.6373 116.386 37.67 116.769 37.67C117.161 37.67 117.492 37.6373 117.763 37.572C118.043 37.4973 118.267 37.404 118.435 37.292C118.612 37.1707 118.738 37.0307 118.813 36.872C118.897 36.704 118.939 36.5267 118.939 36.34C118.939 35.8827 118.724 35.5373 118.295 35.304C117.875 35.0707 117.217 34.8607 116.321 34.674C115.817 34.562 115.369 34.4313 114.977 34.282C114.585 34.1233 114.258 33.932 113.997 33.708C113.735 33.4747 113.535 33.1993 113.395 32.882C113.264 32.5553 113.199 32.168 113.199 31.72C113.199 31.356 113.273 31.0107 113.423 30.684C113.581 30.3573 113.81 30.0727 114.109 29.83C114.407 29.5873 114.776 29.396 115.215 29.256C115.663 29.116 116.181 29.046 116.769 29.046C117.338 29.046 117.837 29.1113 118.267 29.242C118.696 29.3727 119.055 29.5593 119.345 29.802C119.643 30.0353 119.872 30.3153 120.031 30.642C120.199 30.9687 120.301 31.328 120.339 31.72H118.659C118.584 31.3653 118.393 31.0807 118.085 30.866C117.786 30.642 117.347 30.53 116.769 30.53C116.097 30.53 115.611 30.6467 115.313 30.88C115.023 31.1133 114.879 31.3933 114.879 31.72C114.879 32.168 115.065 32.504 115.439 32.728C115.812 32.952 116.386 33.1433 117.161 33.302C117.73 33.4233 118.229 33.5633 118.659 33.722C119.097 33.8807 119.461 34.0813 119.751 34.324C120.04 34.5573 120.255 34.8373 120.395 35.164C120.544 35.4907 120.619 35.8827 120.619 36.34C120.619 36.7413 120.539 37.1147 120.381 37.46C120.222 37.8053 119.979 38.104 119.653 38.356C119.335 38.608 118.934 38.804 118.449 38.944C117.973 39.084 117.413 39.154 116.769 39.154ZM124.889 35.22L121.109 29.2H123.097L125.757 33.54L128.221 29.2H130.069L126.569 35.22V39H124.889V35.22ZM134.405 39.154C133.771 39.154 133.22 39.084 132.753 38.944C132.287 38.804 131.895 38.608 131.577 38.356C131.269 38.104 131.031 37.81 130.863 37.474C130.695 37.1287 130.593 36.7507 130.555 36.34H132.235C132.273 36.536 132.333 36.7133 132.417 36.872C132.511 37.0307 132.641 37.1707 132.809 37.292C132.977 37.4133 133.187 37.5067 133.439 37.572C133.701 37.6373 134.023 37.67 134.405 37.67C134.797 37.67 135.129 37.6373 135.399 37.572C135.679 37.4973 135.903 37.404 136.071 37.292C136.249 37.1707 136.375 37.0307 136.449 36.872C136.533 36.704 136.575 36.5267 136.575 36.34C136.575 35.8827 136.361 35.5373 135.931 35.304C135.511 35.0707 134.853 34.8607 133.957 34.674C133.453 34.562 133.005 34.4313 132.613 34.282C132.221 34.1233 131.895 33.932 131.633 33.708C131.372 33.4747 131.171 33.1993 131.031 32.882C130.901 32.5553 130.835 32.168 130.835 31.72C130.835 31.356 130.91 31.0107 131.059 30.684C131.218 30.3573 131.447 30.0727 131.745 29.83C132.044 29.5873 132.413 29.396 132.851 29.256C133.299 29.116 133.817 29.046 134.405 29.046C134.975 29.046 135.474 29.1113 135.903 29.242C136.333 29.3727 136.692 29.5593 136.981 29.802C137.28 30.0353 137.509 30.3153 137.667 30.642C137.835 30.9687 137.938 31.328 137.975 31.72H136.295C136.221 31.3653 136.029 31.0807 135.721 30.866C135.423 30.642 134.984 30.53 134.405 30.53C133.733 30.53 133.248 30.6467 132.949 30.88C132.66 31.1133 132.515 31.3933 132.515 31.72C132.515 32.168 132.702 32.504 133.075 32.728C133.449 32.952 134.023 33.1433 134.797 33.302C135.367 33.4233 135.866 33.5633 136.295 33.722C136.734 33.8807 137.098 34.0813 137.387 34.324C137.677 34.5573 137.891 34.8373 138.031 35.164C138.181 35.4907 138.255 35.8827 138.255 36.34C138.255 36.7413 138.176 37.1147 138.017 37.46C137.859 37.8053 137.616 38.104 137.289 38.356C136.972 38.608 136.571 38.804 136.085 38.944C135.609 39.084 135.049 39.154 134.405 39.154ZM142.394 30.656H139.104V29.2H147.364V30.656H144.074V39H142.394V30.656ZM148.903 29.2H155.483V30.656H150.583V33.232H155.063V34.688H150.583V37.544H155.483V39H148.903V29.2ZM157.516 29.2H159.252L162.374 35.01L165.496 29.2H167.176V39H165.496V32.14L162.906 36.97H161.786L159.196 32.14V39H157.516V29.2Z" fill="black"/>
<path d="M16.4714 6V16.4589H5V27.2088H14.871V19.4571L27.3101 38V27.2088H39V16.4589H28.5807V23.9847L16.4714 6Z" fill="white"/>
<path d="M16.4714 6V16.4589H5V27.2088H14.871V19.4571L27.3101 38V27.2088H39V16.4589H28.5807V23.9847L16.4714 6Z" fill="white"/>
</svg>
